<svg width="24" height="24" viewBox="0 0 24 24" fill="none" xmlns="http://www.w3.org/2000/svg">
<path d="M17.6969 12.3055C17.6875 10.707 18.4117 9.50234 19.8742 8.61406C19.0562 7.44219 17.8188 6.79766 16.1875 6.67344C14.643 6.55156 12.9531 7.57344 12.3344 7.57344C11.6805 7.57344 10.1852 6.71563 9.00859 6.71563C6.58047 6.75313 4 8.65156 4 12.5141C4 13.6555 4.20859 14.8344 4.62578 16.0484C5.18359 17.6469 7.19453 21.5633 9.29219 21.5C10.3891 21.4742 11.1648 20.7219 12.5922 20.7219C13.9773 20.7219 14.6945 21.5 15.918 21.5C18.0344 21.4695 19.8531 17.9094 20.3828 16.3063C17.5445 14.968 17.6969 12.3875 17.6969 12.3055ZM15.2336 5.15703C16.4219 3.74609 16.3141 2.46172 16.2789 2C15.2289 2.06094 14.0148 2.71484 13.3234 3.51875C12.5617 4.38125 12.1141 5.44766 12.2102 6.65C13.3445 6.73672 14.3805 6.15313 15.2336 5.15703Z" fill="black"/>
</svg>
