<svg width="24" height="12" viewBox="0 0 24 12" fill="none" xmlns="http://www.w3.org/2000/svg">
<g clip-path="url(#clip0_0_34)">
<path opacity="0.4" d="M2.86403 0.5C2.21631 0.515995 1.60135 0.788118 1.15391 1.25673C0.706478 1.72535 0.463069 2.35223 0.477029 3V9C0.463066 9.6476 0.706338 10.2743 1.15356 10.7429C1.60078 11.2115 2.21548 11.4837 2.86303 11.5H18.136C18.7837 11.484 19.3987 11.2119 19.8461 10.7433C20.2936 10.2747 20.537 9.64777 20.523 9V3C20.537 2.35223 20.2936 1.72535 19.8461 1.25673C19.3987 0.788118 18.7837 0.515995 18.136 0.5H2.86403ZM2.86403 0H18.136C18.9135 0.0183534 19.6519 0.344655 20.189 0.907192C20.726 1.46973 21.0177 2.22248 21 3V9C21.0177 9.77752 20.726 10.5303 20.189 11.0928C19.6519 11.6553 18.9135 11.9816 18.136 12H2.86403C2.08652 11.9816 1.34811 11.6553 0.811072 11.0928C0.274036 10.5303 -0.017682 9.77752 2.94276e-05 9V3C-0.017682 2.22248 0.274036 1.46973 0.811072 0.907192C1.34811 0.344655 2.08652 0.0183534 2.86403 0V0Z" fill="#101010"/>
<rect x="2" y="2" width="17" height="8" rx="1" fill="#101010"/>
<path opacity="0.4" d="M22 4C22.5304 4 23.0391 4.21071 23.4142 4.58579C23.7893 4.96086 24 5.46957 24 6C24 6.53043 23.7893 7.03914 23.4142 7.41421C23.0391 7.78929 22.5304 8 22 8V4Z" fill="#101010"/>
</g>
<defs>
<clipPath id="clip0_0_34">
<rect width="24" height="12" fill="white"/>
</clipPath>
</defs>
</svg>
