<svg width="150" height="44" viewBox="0 0 150 44" fill="none" xmlns="http://www.w3.org/2000/svg">
<g clip-path="url(#clip0_11_1268)">
<path d="M-0.134033 34.704V9.85909H5.65127L15.9442 26.7536H12.8918L22.9007 9.85909H28.686L28.757 34.704H22.2973L22.2264 19.6906H23.3266L15.8377 32.255H12.7143L5.01241 19.6906H6.36113V34.704H-0.134033ZM35.6465 41.909C34.6291 41.909 33.5998 41.7434 32.5587 41.4121C31.5412 41.1045 30.7131 40.6904 30.0742 40.1698L32.4167 35.4493C32.819 35.8042 33.2804 36.0764 33.8009 36.2656C34.3451 36.4786 34.8775 36.5851 35.3981 36.5851C36.1316 36.5851 36.7113 36.4195 37.1372 36.0882C37.5631 35.7569 37.9299 35.2364 38.2375 34.5265L39.1248 32.2905L39.6572 31.6161L46.1879 15.4669H52.612L44.3068 35.4848C43.6442 37.1411 42.8752 38.4307 41.9997 39.3535C41.1479 40.3 40.1896 40.9625 39.1248 41.3411C38.0837 41.7197 36.9243 41.909 35.6465 41.909ZM38.273 35.5203L29.7902 15.4669H36.7113L42.958 31.0127L38.273 35.5203ZM70.2204 9.85909H77.2479V34.704H70.2204V9.85909ZM60.6373 34.704H53.6098V9.85909H60.6373V34.704ZM70.7173 25.0145H60.1404V19.1937H70.7173V25.0145ZM92.5689 34.704V31.1192L92.1075 30.2319V23.6302C92.1075 22.5655 91.7763 21.7491 91.1137 21.1813C90.4749 20.5897 89.4456 20.2939 88.0259 20.2939C87.1031 20.2939 86.1684 20.4477 85.2219 20.7553C84.2755 21.0393 83.471 21.4415 82.8084 21.9621L80.5369 17.3835C81.6253 16.6737 82.9268 16.1295 84.4411 15.7509C85.9791 15.3486 87.5053 15.1475 89.0197 15.1475C92.143 15.1475 94.5565 15.8692 96.2602 17.3126C97.9875 18.7323 98.8511 20.9683 98.8511 24.0207V34.704H92.5689ZM86.8901 35.0234C85.3521 35.0234 84.0507 34.7631 82.9859 34.2426C81.9211 33.722 81.1048 33.0122 80.5369 32.113C79.9927 31.2139 79.7206 30.2082 79.7206 29.0961C79.7206 27.913 80.0163 26.8956 80.6079 26.0438C81.2231 25.1683 82.1577 24.5057 83.4118 24.0562C84.6659 23.5829 86.2867 23.3463 88.2743 23.3463H92.8174V26.8601H89.1971C88.1087 26.8601 87.3397 27.0375 86.8901 27.3925C86.4642 27.7474 86.2512 28.2206 86.2512 28.8122C86.2512 29.4037 86.476 29.877 86.9256 30.2319C87.3752 30.5868 87.9904 30.7643 88.7712 30.7643C89.5047 30.7643 90.1673 30.5868 90.7588 30.2319C91.374 29.8533 91.8236 29.2854 92.1075 28.5282L93.0303 31.0127C92.6754 32.3378 91.9774 33.3434 90.9363 34.0296C89.9188 34.6921 88.5701 35.0234 86.8901 35.0234ZM114.146 35.0234C112.419 35.0234 110.975 34.6685 109.816 33.9586C108.68 33.2488 107.828 32.1603 107.261 30.6933C106.693 29.2263 106.409 27.3452 106.409 25.05C106.409 22.8021 106.704 20.9446 107.296 19.4776C107.911 18.0106 108.799 16.9221 109.958 16.2123C111.117 15.5024 112.513 15.1475 114.146 15.1475C115.897 15.1475 117.482 15.5497 118.902 16.3542C120.346 17.1588 121.481 18.3063 122.309 19.797C123.161 21.2641 123.587 23.015 123.587 25.05C123.587 27.1085 123.161 28.8832 122.309 30.3739C121.481 31.8409 120.346 32.9885 118.902 33.8167C117.482 34.6212 115.897 35.0234 114.146 35.0234ZM102.043 34.704V8.36839H108.787V18.6968L108.432 25.05L108.467 31.4031V34.704H102.043ZM112.726 29.664C113.484 29.664 114.158 29.4865 114.75 29.1316C115.365 28.7767 115.85 28.2561 116.205 27.5699C116.583 26.8601 116.773 26.0201 116.773 25.05C116.773 24.0798 116.583 23.2635 116.205 22.601C115.85 21.9148 115.365 21.3942 114.75 21.0393C114.158 20.6844 113.484 20.5069 112.726 20.5069C111.969 20.5069 111.283 20.6844 110.668 21.0393C110.076 21.3942 109.591 21.9148 109.213 22.601C108.858 23.2635 108.68 24.0798 108.68 25.05C108.68 26.0201 108.858 26.8601 109.213 27.5699C109.591 28.2561 110.076 28.7767 110.668 29.1316C111.283 29.4865 111.969 29.664 112.726 29.664ZM125.657 34.704V15.4669H132.4V34.704H125.657ZM129.029 13.3374C127.798 13.3374 126.804 12.9943 126.047 12.3081C125.29 11.6219 124.911 10.7701 124.911 9.75261C124.911 8.73515 125.29 7.88333 126.047 7.19713C126.804 6.51094 127.798 6.16785 129.029 6.16785C130.259 6.16785 131.253 6.49911 132.01 7.16164C132.767 7.80051 133.146 8.62867 133.146 9.64613C133.146 10.7109 132.767 11.5982 132.01 12.3081C131.276 12.9943 130.283 13.3374 129.029 13.3374ZM144.307 35.0234C141.846 35.0234 139.93 34.42 138.557 33.2133C137.185 31.9829 136.499 30.1372 136.499 27.6764V11.1723H143.242V27.6054C143.242 28.2916 143.432 28.8358 143.81 29.2381C144.189 29.6167 144.674 29.806 145.265 29.806C146.07 29.806 146.756 29.6049 147.324 29.2026L148.992 33.9231C148.424 34.3017 147.726 34.5738 146.898 34.7395C146.07 34.9288 145.206 35.0234 144.307 35.0234ZM133.695 21.2167V16.1768H147.643V21.2167H133.695Z" fill="black"/>
</g>
<defs>
<clipPath id="clip0_11_1268">
<rect width="150" height="43.2432" fill="white"/>
</clipPath>
</defs>
</svg>
