<svg width="16" height="17" viewBox="0 0 16 17" fill="none" xmlns="http://www.w3.org/2000/svg">
<g clip-path="url(#clip0_4_2509)">
<path d="M15.9924 8.34073C15.9924 7.66986 15.938 7.18029 15.8202 6.67261H8.15942V9.70061H12.6561C12.5655 10.4531 12.0759 11.5864 10.988 12.3479L10.9727 12.4492L13.3949 14.3257L13.5627 14.3424C15.1039 12.919 15.9924 10.8248 15.9924 8.34073Z" fill="#4285F4"/>
<path d="M8.15942 16.3187C10.3624 16.3187 12.2119 15.5934 13.5627 14.3423L10.988 12.3478C10.299 12.8283 9.37424 13.1637 8.15942 13.1637C6.00174 13.1637 4.17042 11.7404 3.51761 9.77307L3.42192 9.7812L0.903299 11.7304L0.870361 11.8219C2.21211 14.4873 4.96817 16.3187 8.15942 16.3187Z" fill="#00D492"/>
<path d="M3.51756 9.77316C3.34531 9.26547 3.24562 8.72147 3.24562 8.15941C3.24562 7.59728 3.34531 7.05334 3.5085 6.54566L3.50394 6.43753L0.95375 4.45703L0.870312 4.49672C0.317313 5.60278 0 6.84484 0 8.15941C0 9.47397 0.317313 10.716 0.870312 11.822L3.51756 9.77316Z" fill="#FBBC05"/>
<path d="M8.15942 3.15494C9.69155 3.15494 10.725 3.81675 11.3144 4.36981L13.6171 2.12144C12.2029 0.806875 10.3624 0 8.15942 0C4.96817 0 2.21211 1.83131 0.870361 4.49669L3.50855 6.54563C4.17042 4.57831 6.00174 3.15494 8.15942 3.15494Z" fill="#EB4335"/>
</g>
<defs>
<clipPath id="clip0_4_2509">
<rect width="16" height="16.375" fill="white"/>
</clipPath>
</defs>
</svg>
