<svg width="16" height="12" viewBox="0 0 16 12" fill="none" xmlns="http://www.w3.org/2000/svg">
<g clip-path="url(#clip0_0_30)">
<path d="M7.99116 11.6189C8.04052 11.6222 8.09005 11.6151 8.13642 11.5979C8.1828 11.5807 8.22502 11.5538 8.2602 11.519C8.3362 11.45 10.029 9.74794 10.413 9.40894C10.4616 9.33495 10.4913 9.25003 10.4992 9.16187C10.4868 9.0646 10.4391 8.9753 10.3652 8.91089C9.6773 8.39399 8.84013 8.1145 7.97968 8.1145C7.11924 8.1145 6.28207 8.39399 5.59419 8.91089C5.53919 8.98421 5.50458 9.07081 5.49409 9.16187C5.48767 9.20819 5.49363 9.25548 5.51118 9.29883C5.52873 9.34218 5.55735 9.38013 5.59419 9.40894C5.68519 9.50894 7.67814 11.438 7.77314 11.519C7.86814 11.6 7.87016 11.6189 7.99116 11.6189Z" fill="#101010"/>
<path d="M3 6.29688C3.0075 6.38532 3.04613 6.46824 3.10901 6.53088L4.26404 7.83093C4.32512 7.88867 4.40594 7.92078 4.48999 7.92078C4.57404 7.92078 4.65498 7.88867 4.71606 7.83093C5.58677 6.94406 6.77323 6.43818 8.01599 6.42395C9.25694 6.44673 10.4404 6.95129 11.316 7.83093C11.3769 7.88723 11.4567 7.91846 11.5396 7.91846C11.6224 7.91846 11.7022 7.88723 11.7631 7.83093L12.925 6.53088C12.9764 6.4633 13.006 6.38169 13.01 6.29688C13.0149 6.25305 13.0098 6.20868 12.9951 6.16711C12.9804 6.12555 12.9564 6.08787 12.925 6.05688C12.2987 5.38261 11.54 4.84483 10.6964 4.47705C9.85279 4.10927 8.9424 3.91943 8.02209 3.91943C7.10179 3.91943 6.19128 4.10927 5.34766 4.47705C4.50404 4.84483 3.74537 5.38261 3.11902 6.05688C3.03702 6.17388 3 6.16388 3 6.29688Z" fill="#101010"/>
<path d="M0.0970459 3.203C0.0340459 3.303 -0.00292969 3.32697 -0.00292969 3.44897C0.00591287 3.53771 0.0406686 3.62182 0.0970459 3.69092C0.0970459 3.69092 1.06404 4.73502 1.31104 4.91602C1.3779 4.96727 1.45982 4.995 1.54407 4.995C1.62831 4.995 1.71012 4.96727 1.77698 4.91602C3.4523 3.30385 5.68693 2.4032 8.01196 2.4032C10.337 2.4032 12.5718 3.30385 14.2471 4.91602C14.2471 4.91602 14.509 5.10602 14.697 4.91602C14.885 4.72602 15.897 3.69092 15.897 3.69092C15.9538 3.62207 15.9887 3.53783 15.9971 3.44897C16.0016 3.40293 15.9948 3.35646 15.9774 3.3136C15.96 3.27074 15.9324 3.23281 15.897 3.203C13.7798 1.14959 10.9464 0.0012207 7.99707 0.0012207C5.0477 0.0012207 2.21419 1.14959 0.0970459 3.203Z" fill="#101010"/>
</g>
<defs>
<clipPath id="clip0_0_30">
<rect width="16" height="11.619" fill="white"/>
</clipPath>
</defs>
</svg>
